<?xml version="1.0" encoding="iso-8859-1"?>
<!-- Generator: Adobe Illustrator 16.0.0, SVG Export Plug-In . SVG Version: 6.00 Build 0)  -->
<!DOCTYPE svg PUBLIC "-//W3C//DTD SVG 1.1//EN" "http://www.w3.org/Graphics/SVG/1.1/DTD/svg11.dtd">
<svg version="1.1" id="&#x5716;&#x5C64;_1" xmlns="http://www.w3.org/2000/svg" xmlns:xlink="http://www.w3.org/1999/xlink" x="0px"
	 y="0px" width="50px" height="50px" viewBox="0 0 50 50" style="enable-background:new 0 0 50 50;" xml:space="preserve">
<g>
	<path style="fill:#040000;" d="M40.691,6.588h0.396C36.785,2.831,31.161,0.548,25,0.548S13.215,2.831,8.913,6.588h0.396H40.691z"/>
	<path style="fill:#040000;" d="M26.265,32.263v17.189c5.4-0.276,10.338-2.302,14.259-5.523V11.692L26.265,32.263z"/>
	<path style="fill:#040000;" d="M43.427,8.928v32.175c3.758-4.301,6.041-9.926,6.041-16.087S47.186,13.23,43.427,8.928z"/>
	<path style="fill:#040000;" d="M0.532,25.016c0,6.161,2.283,11.786,6.041,16.087V8.928C2.814,13.23,0.532,18.855,0.532,25.016z"/>
	<path style="fill:#040000;" d="M9.309,11.692v32.094c3.856,3.228,8.721,5.284,14.054,5.637V31.968L9.309,11.692z"/>
	<polygon style="fill:#040000;" points="26.265,27.703 38.91,9.195 26.265,9.195 	"/>
	<polygon style="fill:#040000;" points="23.363,27.158 23.363,9.195 11.09,9.195 	"/>
</g>
</svg>
